# xmcd
#
# Track frame offsets:
#	150
#	12605
#	25409
#	36873
#	46483
#	56543
#	68324
#	77526
#	91392
#	103178
#	111701
#
# Disc length: 1659 seconds
#
# Revision: 1
# Processed by: cddbd v1.5.2PL0 Copyright (c) Steve Scherf et al.
# Submitted via: audiograbber 1.83.01
#
DISCID=8f06790b
DTITLE=Johnny Cash - Box Set Series [CD1)
DYEAR=1900
DGENRE=Country
TTITLE0=I Walk the Line
TTITLE1=Folsom Prison Blues
TTITLE2=Big River
TTITLE3=What Do I Care
TTITLE4=All Over Again
TTITLE5=I Still Miss Someone
TTITLE6=One More Ride
TTITLE7=Don't Take Your Guns to Town
TTITLE8=The Ballad of Boot Hill
TTITLE9=The Rebel - Johnny Yuma
TTITLE10=Remember The Alamo
EXTD=
EXTT0=
EXTT1=
EXTT2=
EXTT3=
EXTT4=
EXTT5=
EXTT6=
EXTT7=
EXTT8=
EXTT9=
EXTT10=
PLAYORDER=
